<svg width="88" height="24" viewBox="0 0 88 24" fill="none" xmlns="http://www.w3.org/2000/svg">
<path d="M6.65015 18.8803C4.07692 18.8803 2.28114 18.0809 1 16.8545L2.73008 14.3907C3.64988 15.3105 5.05146 16.0661 6.7925 16.0661C7.92034 16.0661 8.59923 15.6281 8.59923 15.0149C8.59923 13.2847 1.40515 14.6754 1.40515 9.76966C1.40515 7.63435 3.21188 5.729 6.47495 5.729C8.51163 5.729 10.2855 6.34222 11.6433 7.50295L9.84752 9.84632C8.77443 8.97029 7.38379 8.53228 6.12455 8.53228C5.17191 8.53228 4.75582 8.91554 4.75582 9.4521C4.75582 11.0727 11.939 9.89012 11.939 14.6206C11.9499 17.194 10.0665 18.8803 6.65015 18.8803Z" fill="#0A0E14"/>
<path fill-rule="evenodd" clip-rule="evenodd" d="M22.0903 5.93677H13.418V18.6939H22.0136C21.5975 17.785 21.269 16.8214 21.0391 15.8249H16.7139V13.6677H20.6997C20.6668 13.2516 20.6449 12.8355 20.6449 12.4084C20.6449 11.8609 20.6778 11.3243 20.7325 10.7987H16.7139V8.80575H21.0719C21.3128 7.79832 21.6632 6.84564 22.0903 5.93677Z" fill="#0A0E14"/>
<path d="M84.1011 18.6831C82.2286 18.6831 81.2213 17.7523 81.2213 15.9784V11.8063H79.6992V9.2549H81.2213V6.73633H84.1339V9.2549H86.0064V11.8063H84.1339V15.1681C84.1339 15.7046 84.4405 16.0988 84.9552 16.0988C85.2837 16.0988 85.6012 15.9893 85.6998 15.8689L86.2692 18.0808C85.9078 18.4203 85.1851 18.6831 84.1011 18.6831Z" fill="#005AE0"/>
<path d="M74.8963 18.6832C73.2538 18.6832 71.5566 18.1248 70.582 17.2706L71.7975 15.2448C72.4873 15.8581 73.9546 16.4603 75.0386 16.4603C75.9146 16.4603 76.276 16.1756 76.276 15.7595C76.276 14.555 70.9215 15.7376 70.9215 12.0364C70.9215 10.4158 72.3121 9.00317 74.8744 9.00317C76.4183 9.00317 77.7323 9.49594 78.7288 10.2187L77.6009 12.1897C77.0534 11.6531 76.0022 11.1823 74.8963 11.1823C74.2065 11.1823 73.7356 11.467 73.7356 11.8503C73.7356 12.9234 79.0901 11.8722 79.0901 15.65C79.0901 17.3911 77.5462 18.6832 74.8963 18.6832Z" fill="#005AE0"/>
<path d="M64.7846 18.683C61.6529 18.683 59.7695 16.4273 59.7695 13.843C59.7695 11.2587 61.6529 9.01392 64.7846 9.01392C67.9491 9.01392 69.8215 11.2478 69.8215 13.843C69.8215 16.4382 67.9601 18.683 64.7846 18.683ZM64.7846 16.0988C66.0767 16.0988 66.8103 15.0913 66.8103 13.843C66.8103 12.6275 66.0876 11.6091 64.7846 11.6091C63.5034 11.6091 62.8027 12.6166 62.8027 13.843C62.8027 15.0804 63.5144 16.0988 64.7846 16.0988Z" fill="#005AE0"/>
<path d="M54.0033 18.683C50.8717 18.683 48.9883 16.4273 48.9883 13.843C48.9883 11.2587 50.8717 9.01392 54.0033 9.01392C57.1679 9.01392 59.0403 11.2478 59.0403 13.843C59.0403 16.4382 57.1679 18.683 54.0033 18.683ZM54.0033 16.0988C55.2954 16.0988 56.0291 15.0913 56.0291 13.843C56.0291 12.6275 55.3064 11.6091 54.0033 11.6091C52.7222 11.6091 52.0214 12.6166 52.0214 13.843C52.0214 15.0804 52.7331 16.0988 54.0033 16.0988Z" fill="#005AE0"/>
<path fill-rule="evenodd" clip-rule="evenodd" d="M35.6665 18.6831C36.5425 16.7668 37.0352 14.6315 37.0352 12.3867C37.0352 10.0762 36.5206 7.88613 35.5898 5.92603H44.2293C46.7478 5.92603 47.9523 7.56857 47.9523 9.17826C47.9523 10.7661 46.9777 11.8392 45.7733 12.102C47.131 12.31 48.1932 13.6131 48.1932 15.2228C48.1932 17.0734 46.9558 18.6831 44.4593 18.6831H35.6665ZM44.6126 9.75863C44.6126 10.3937 44.1527 10.8318 43.4847 10.8318H40.2983V8.7074H43.4847C44.1527 8.7074 44.6126 9.14541 44.6126 9.75863ZM44.8644 14.7629C44.8644 15.4528 44.3826 15.9127 43.6052 15.9127H40.3093V13.6131H43.6052C44.4045 13.6241 44.8644 14.1387 44.8644 14.7629Z" fill="#005AE0"/>
<path d="M24.5644 16.6684C25.4733 16.7122 26.0427 15.9018 26.4916 15.2339C26.6449 15.0039 26.7982 14.774 26.9625 14.533L26.3931 14.2045C26.4697 13.8322 26.5573 13.4709 26.6668 13.1314L25.4076 13.3942C25.5171 12.7262 26.0646 11.4889 27.4114 11.2808C28.6816 8.83889 30.5321 7.84242 31.5176 7.64531L31.4957 7.68911L31.5176 7.65626C31.8352 8.60894 31.9009 10.7114 30.4226 13.0219C30.9154 14.2812 30.116 15.3762 29.5905 15.8033L29.1963 14.5768C28.9554 14.8397 28.6926 15.0915 28.3969 15.3543L27.8275 15.0258C27.7071 15.2777 27.5757 15.5295 27.4552 15.7814C27.1048 16.5041 26.6778 17.413 27.1705 18.1685C27.4005 18.5299 27.7509 18.8037 28.1779 18.8475L28.0794 18.8365C30.6088 19.1322 33.182 17.9386 34.5289 15.5952C36.3465 12.4525 35.2625 8.43373 32.1199 6.61599C28.9773 4.79824 24.9586 5.88232 23.141 9.02505C21.8051 11.3356 22.035 14.106 23.4914 16.1427C23.7432 16.4712 24.1483 16.6465 24.5644 16.6684Z" fill="#0A0E14"/>
<path d="M29.2752 11.6421C29.6255 11.8392 30.0635 11.7188 30.2606 11.3793C30.4577 11.0289 30.3373 10.5909 29.9978 10.3938C29.6584 10.1967 29.2095 10.3171 29.0124 10.6566C28.8043 11.007 28.9248 11.445 29.2752 11.6421Z" fill="#0A0E14"/>
</svg>
