<svg width="40" height="40" viewBox="0 0 40 40" fill="none" xmlns="http://www.w3.org/2000/svg">
<path d="M14.0101 38.8505C15.6897 39.5241 17.512 39.9239 19.4253 39.9904C22.0148 40.0805 24.4771 39.547 26.6785 38.5336C24.0387 37.5002 21.648 35.989 19.6076 34.1099C18.285 36.2201 16.3288 37.8867 14.0101 38.8505Z" fill="black" fill-opacity="0.5"/>
<path d="M19.6074 34.11C14.9497 29.8176 12.1242 23.605 12.363 16.7909C12.3708 16.5696 12.3825 16.3485 12.3962 16.1274C11.562 15.9124 10.6912 15.7813 9.79499 15.7501C8.51217 15.7054 7.26987 15.864 6.09703 16.1931C4.8537 18.3633 4.10339 20.8534 4.00992 23.5205C3.7687 30.404 7.94906 36.4184 14.0098 38.8507C16.3285 37.8868 18.2847 36.2221 19.6074 34.11Z" fill="black" fill-opacity="0.6"/>
<path d="M20.8242 0C17.773 2.4357 15.3637 5.64737 13.9059 9.34714C13.0714 11.4663 12.5469 13.7427 12.3938 16.1289C17.7511 17.5061 21.6219 22.4417 21.4208 28.1791C21.3444 30.3602 20.6859 32.3826 19.6049 34.1115C21.6453 35.9924 24.0361 37.5018 26.6759 38.5353C31.9744 36.0948 35.7337 30.8431 35.9514 24.6316C36.0924 20.607 34.5406 17.0202 32.3479 13.9925C30.0323 10.7905 20.8242 0 20.8242 0Z" fill="black"/>
</svg>
